<!-- CC-BY - https://github.com/reiver/fediverse-icons -->
<svg width="512" height="512" viewBox="0 0 512 512" fill="none" xmlns="http://www.w3.org/2000/svg">
<rect x="86" y="86" width="340" height="341" rx="95" stroke="black" stroke-width="18"/>
<path fill-rule="evenodd" clip-rule="evenodd" d="M179.5 154C122.891 154 77 199.891 77 256.5C77 313.109 122.891 359 179.5 359H332.5C389.109 359 435 313.109 435 256.5C435 199.891 389.109 154 332.5 154H179.5ZM174.669 230.184C179.504 231.338 184.359 228.355 185.513 223.52C186.668 218.686 183.684 213.831 178.85 212.676C178.199 212.521 177.553 212.395 176.913 212.3C170.739 211.376 164.977 213.68 160.921 216.999C156.866 220.319 153.468 225.511 153.153 231.746C153.12 232.392 153.115 233.05 153.139 233.719C153.315 238.687 157.484 242.571 162.452 242.395C167.419 242.219 171.304 238.05 171.128 233.082C171.122 232.917 171.124 232.775 171.13 232.654C171.136 232.534 171.312 231.756 172.322 230.929C173.332 230.102 174.13 230.084 174.249 230.101C174.368 230.119 174.508 230.146 174.669 230.184ZM326.323 223.52C327.477 228.355 332.332 231.338 337.167 230.184C337.328 230.146 337.468 230.119 337.587 230.101C337.706 230.084 338.503 230.102 339.514 230.929C340.524 231.756 340.7 232.534 340.706 232.654C340.712 232.775 340.714 232.917 340.708 233.082C340.532 238.05 344.417 242.219 349.384 242.395C354.352 242.571 358.521 238.687 358.697 233.719C358.72 233.05 358.716 232.392 358.683 231.746C358.368 225.511 354.97 220.319 350.914 216.999C346.859 213.68 341.097 211.376 334.923 212.3C334.283 212.395 333.637 212.521 332.986 212.676C328.152 213.831 325.168 218.686 326.323 223.52ZM339 285C334.029 285 330 280.971 330 276C330 272.059 326.462 268 321 268C315.538 268 312 272.059 312 276C312 280.971 307.971 285 303 285C298.029 285 294 280.971 294 276C294 261.163 306.58 250 321 250C335.42 250 348 261.163 348 276C348 280.971 343.971 285 339 285ZM237 267C241.971 267 246 271.029 246 276C246 278.899 249.004 283 255 283C260.996 283 264 278.899 264 276C264 271.029 268.029 267 273 267C277.971 267 282 271.029 282 276C282 290.774 268.886 301 255 301C241.114 301 228 290.774 228 276C228 271.029 232.029 267 237 267ZM199 276C199 280.971 203.029 285 208 285C212.971 285 217 280.971 217 276C217 260.939 203.956 250 189.5 250C175.044 250 162 260.939 162 276C162 280.971 166.029 285 171 285C175.971 285 180 280.971 180 276C180 272.283 183.522 268 189.5 268C195.478 268 199 272.283 199 276Z" fill="black"/>
</svg>
