<!-- CC-BY - https://github.com/reiver/fediverse-icons -->
<svg width="512" height="512" viewBox="0 0 512 512" fill="none" xmlns="http://www.w3.org/2000/svg">
<path d="M86 181C86 128.533 128.533 86 181 86H332C384.467 86 427 128.533 427 181V332C427 384.467 384.467 427 332 427H181C128.533 427 86 384.467 86 332V181Z" stroke="black" stroke-width="18"/>
<path fill-rule="evenodd" clip-rule="evenodd" d="M330 77H181C176.726 77 172.513 77.2578 168.374 77.7586C151.65 81.1648 128.281 89.788 109.43 105.543C91.8071 122.264 80.0368 145.092 77.5098 170.637C77.5033 171.09 77.5001 171.544 77.5001 172V341.854C80.5 372.569 105.6 434 182 434V381.854C182 359.763 199.909 341.854 222 341.854H291.299C312.673 341.854 330 324.527 330 303.153C330 281.779 312.673 264.451 291.299 264.451H222C199.909 264.451 182 246.543 182 224.451V206.513C182 184.422 199.909 166.513 222 166.513H290C312.091 166.513 330 148.605 330 126.513V77Z" fill="black"/>
</svg>
