<!-- CC-BY - https://github.com/reiver/fediverse-icons -->
<svg width="512" height="512" viewBox="0 0 512 512" fill="none" xmlns="http://www.w3.org/2000/svg">
<path d="M111 262C91.374 262 72.5518 254.204 58.6741 240.326C44.7964 226.448 37 207.626 37 188C37 168.374 44.7964 149.552 58.6741 135.674C72.5518 121.796 91.374 114 111 114L123 114" stroke="black" stroke-width="18"/>
<path fill-rule="evenodd" clip-rule="evenodd" d="M158 76C131.49 76 110 97.4903 110 124V285.5C110 367.79 176.71 434.5 259 434.5H334C416.29 434.5 483 367.79 483 285.5V124C483 97.4903 461.51 76 435 76H158ZM323 161.201V93.5H305V150.808L288.773 141.44C273.946 132.879 254.987 137.96 246.426 152.787L182.121 264.167C173.561 278.994 178.641 297.953 193.468 306.514L304.848 370.819C319.675 379.379 338.634 374.299 347.195 359.472L411.5 248.092C420.06 233.265 414.98 214.306 400.153 205.745L323 161.201ZM316.845 178.432L391.153 221.334C397.371 224.924 399.501 232.874 395.912 239.092L331.606 350.472C328.016 356.69 320.066 358.82 313.848 355.231L202.468 290.925C196.25 287.335 194.12 279.385 197.709 273.167L262.015 161.787C265.605 155.569 273.555 153.438 279.773 157.028L301.257 169.432L291.498 186.335C284.705 186.123 278.018 189.561 274.382 195.859C270.746 202.157 271.112 209.667 274.692 215.444L253.853 251.539C247.06 251.328 240.372 254.765 236.736 261.063C231.473 270.18 234.597 281.838 243.713 287.101C252.83 292.365 264.488 289.241 269.751 280.124C273.387 273.826 273.021 266.316 269.441 260.538L290.28 224.445C293.284 224.538 296.268 223.918 298.976 222.652L329.227 240.118L305.306 281.551C298.702 281.535 292.273 284.956 288.735 291.085C283.471 300.202 286.595 311.859 295.711 317.123C304.828 322.386 316.486 319.263 321.749 310.146C325.481 303.682 324.997 295.941 321.15 290.108L353.816 233.529L309.763 208.095C310.398 203.65 309.433 199.12 307.087 195.334L316.845 178.432Z" fill="black"/>
</svg>
