<!-- CC-BY - https://github.com/reiver/fediverse-icons -->
<svg width="512" height="512" viewBox="0 0 512 512" fill="none" xmlns="http://www.w3.org/2000/svg">
<path fill-rule="evenodd" clip-rule="evenodd" d="M181 77C123.562 77 77 123.562 77 181V332C77 389.438 123.562 436 181 436H332C389.438 436 436 389.438 436 332V181C436 123.562 389.438 77 332 77H181ZM281.422 155.866C315.228 144.088 352.18 161.945 363.958 195.751C375.736 229.557 357.879 266.509 324.073 278.287C312.972 282.155 301.531 282.827 290.753 280.788L284.289 304.229C291.982 308.027 298.247 314.729 301.293 323.471C307.452 341.15 298.114 360.475 280.435 366.634C262.756 372.794 243.431 363.455 237.271 345.776C235.122 339.608 234.86 333.239 236.18 327.3L209.857 311.573C205.659 315.576 200.559 318.768 194.725 320.801C172.857 328.42 148.954 316.868 141.335 295.001C133.716 273.133 145.267 249.229 167.135 241.611C184.359 235.61 202.845 241.501 213.643 254.959L242.054 239.834C241.877 239.36 241.704 238.883 241.537 238.402C229.759 204.597 247.616 167.644 281.422 155.866ZM250.638 255.656C256.76 263.93 264.7 270.507 273.674 275.01L266.555 300.827C263.745 301.056 260.917 301.642 258.13 302.613C252.799 304.47 248.228 307.524 244.61 311.368L219.924 296.62C223.053 288.714 223.804 279.828 221.626 271.101L250.638 255.656Z" fill="black"/>
</svg>
