<!-- CC-BY - https://github.com/reiver/fediverse-icons -->
<svg width="512" height="512" viewBox="0 0 512 512" fill="none" xmlns="http://www.w3.org/2000/svg">
<path d="M280.5 358.5L173.503 420.287C142.17 438.381 103 415.768 103 379.586L103 256L280.5 358.5Z" fill="black"/>
<path d="M280.5 153.5L103 256L103 132.414C103 96.232 142.17 73.6194 173.504 91.7133L280.5 153.5Z" fill="black"/>
<path d="M387.518 215.299C418.846 233.39 418.846 278.61 387.517 296.701L280.5 358.5L280.5 153.5L387.518 215.299Z" fill="black"/>
<path d="M280.5 358.5L173.503 420.287C142.17 438.381 103 415.768 103 379.586L103 256M280.5 358.5L103 256M280.5 358.5L387.517 296.701C418.846 278.61 418.846 233.39 387.518 215.299L280.5 153.5M280.5 358.5L280.5 153.5M103 256L280.5 153.5M103 256L103 132.414C103 96.232 142.17 73.6194 173.504 91.7133L280.5 153.5" stroke="black" stroke-width="18"/>
</svg>
