<!-- CC-BY - https://github.com/reiver/fediverse-icons -->
<svg width="512" height="512" viewBox="0 0 512 512" fill="none" xmlns="http://www.w3.org/2000/svg">
<path fill-rule="evenodd" clip-rule="evenodd" d="M435 256C435 287.17 427.033 316.479 413.025 342.001C391.664 344.91 368.991 344.165 348.586 337.918C329.966 332.217 313.449 322.017 301.281 306.026C299.348 303.486 297.512 300.783 295.787 297.908C322.925 294.791 344 271.74 344 243.767V237.274C345.958 236.247 347.862 235.153 349.711 233.993C369.733 221.44 382.241 201.974 389.607 180.708C393.431 169.668 395.931 157.977 397.382 146.204C420.959 176.521 435 214.621 435 256ZM342.867 216.945C356.957 207.118 366.533 192.327 372.598 174.816C377.719 160.034 380.192 143.709 380.825 127.705C348.58 96.3263 304.547 77 256 77C157.141 77 77 157.141 77 256C77 258.032 77.0339 260.057 77.1011 262.073C96.1237 244.734 119.094 233.101 142.821 226.028C158.042 221.49 173.696 218.784 189 217.631V206C189 188.327 203.327 174 221 174H255.71C245.912 144.618 225.33 124.59 201.78 111.04C192.329 105.602 182.427 101.233 172.602 97.7727C179.957 93.8773 187.615 90.478 195.531 87.6195C200.671 89.9669 205.766 92.5664 210.757 95.4379C238.99 111.683 264.048 136.818 274.552 174H290C316.034 174 337.766 192.424 342.867 216.945ZM190.988 346.224C189.952 346.156 189 345.326 189 344.111V267.2V236.134V235.685C175.434 236.792 161.529 239.233 147.964 243.277C121.972 251.026 97.6574 264.497 79.405 285.413C90.518 352.636 139.086 407.22 202.953 427.009C200.261 421.782 197.985 416.505 196.101 411.193C188.308 389.215 187.398 367.119 190.988 346.224ZM215.671 323.921C213.579 329.506 211.806 335.226 210.418 341.045C205.458 361.831 205.442 383.677 213.066 405.177C216.321 414.355 221.008 423.585 227.418 432.73C236.725 434.224 246.272 435 256 435C315.506 435 368.23 405.964 400.777 361.286C381.537 362.46 361.757 360.775 343.317 355.129C321.737 348.523 301.786 336.413 286.957 316.926C282.66 311.28 278.835 305.068 275.539 298.267H266.5H253.963H247.695H244.561C242.554 298.267 240.629 299.064 239.211 300.484L238.435 301.26L235.443 304.252L229.46 310.238L217.493 322.208L215.671 323.921Z" fill="black"/>
</svg>
