<!-- CC-BY - https://github.com/reiver/fediverse-icons -->
<svg width="512" height="512" viewBox="0 0 512 512" fill="none" xmlns="http://www.w3.org/2000/svg">
<path d="M144 124C144 97.4903 165.49 76 192 76H209C222.255 76 233 86.7452 233 100V412C233 425.255 222.255 436 209 436H168C154.745 436 144 425.255 144 412V124Z" fill="black"/>
<path d="M278 100C278 86.7452 288.745 76 302 76H344C357.255 76 368 86.7452 368 100V227C368 251.853 347.853 272 323 272H302C288.745 272 278 261.255 278 248V100Z" fill="black"/>
<path d="M278 358C278 344.745 288.745 334 302 334H344C357.255 334 368 344.745 368 358V388C368 414.51 346.51 436 320 436H302C288.745 436 278 425.255 278 412V358Z" fill="black"/>
</svg>
