<!-- CC-BY - https://github.com/reiver/fediverse-icons -->
<svg width="521" height="521" viewBox="0 0 521 521" fill="none" xmlns="http://www.w3.org/2000/svg">
<path fill-rule="evenodd" clip-rule="evenodd" d="M185 81C127.562 81 81 127.562 81 185V336C81 393.438 127.562 440 185 440H336C393.438 440 440 393.438 440 336V185C440 127.562 393.438 81 336 81H185ZM347.261 302.318C353.068 294.389 357.947 283.263 361.357 271.479C364.793 259.608 366.928 246.416 366.831 234.07C366.736 221.936 364.475 209.481 357.993 200.108C351.015 190.017 339.9 184.615 325.359 186.013C319.294 186.597 314.023 188.657 310.178 192.011C306.47 195.246 303.499 200.377 304.449 206.269C305.488 212.72 310.608 216.592 316.089 217.758C321.282 218.864 327.222 217.834 333.377 215.343C337.153 213.814 339.328 210.013 338.963 206.155C340.678 207.257 342.045 208.693 343.188 210.346C346.713 215.444 348.749 223.68 348.832 234.211C348.913 244.53 347.105 255.977 344.067 266.475C341.004 277.059 336.878 286.031 332.739 291.683C322.798 305.257 312.989 312.694 304.461 315.632C296.305 318.443 288.746 317.378 281.782 312.617C280.605 311.813 278.555 309.136 276.868 302.56C275.278 296.362 274.41 288.287 274.141 279.056C273.766 266.213 274.566 251.91 275.764 238.762C276.624 233.132 277.39 227.724 278.059 222.768C278.182 221.857 278.269 220.496 277.946 218.97C277.79 218.231 277.439 216.975 276.564 215.658C275.693 214.347 273.733 212.2 270.362 211.67C266.917 211.129 264.323 212.635 263.013 213.75C261.743 214.832 261.046 216.015 260.698 216.704C259.976 218.131 259.719 219.497 259.611 220.399C259.012 225.388 258.417 230.846 257.89 236.568C255.149 254.441 251.55 273.946 247.355 287.715C238.055 318.24 212.07 319.579 202.328 312.696C197.605 309.359 195.185 301.984 197.043 285.625C198.246 275.036 200.907 263 203.91 249.414C205.399 242.675 206.973 235.555 208.495 228.042C211.159 214.89 209.829 204.919 204.981 197.868C200.095 190.759 192.992 188.575 188.467 188.035L188.443 188.032L188.42 188.03C177.902 186.831 167.697 191.154 161.177 198.748C154.465 206.568 151.756 217.749 156.116 229.408C157.857 234.063 163.043 236.426 167.698 234.685C172.354 232.944 174.717 227.759 172.976 223.103C170.987 217.785 172.257 213.476 174.835 210.473C177.6 207.252 181.985 205.422 186.357 205.911C187.75 206.082 189.181 206.658 190.148 208.065C191.16 209.536 193.004 213.853 190.853 224.468C189.509 231.105 188.04 237.761 186.598 244.291L186.598 244.291C183.468 258.473 180.468 272.064 179.158 283.593C177.305 299.913 178.043 317.578 191.942 327.397C210.257 340.338 243.128 335.614 259.175 305.995C259.259 306.344 259.345 306.689 259.433 307.032C261.398 314.694 264.848 322.845 271.623 327.477C283.282 335.447 296.783 337.317 310.325 332.65C323.497 328.112 336.026 317.66 347.261 302.318ZM321.837 205.745C321.836 205.745 321.842 205.737 321.857 205.721C321.845 205.737 321.837 205.745 321.837 205.745Z" fill="black"/>
</svg>
