<svg height="24" width="24" xmlns="http://www.w3.org/2000/svg"><path d="m12 17q-2.07 0-3.54-1.46-1.46-1.47-1.46-3.54t1.46-3.54q1.47-1.46 3.54-1.46t3.54 1.46q1.46 1.47 1.46 3.54 0 2.07-1.46 3.54-1.47 1.46-3.54 1.46zm-10-4q-.43 0-.71-.29-.29-.28-.29-.71t.29-.71q.29-.29.71-.29h2q.42 0 .71.29.29.28.29.71t-.29.71q-.29.29-.71.29zm18 0q-.43 0-.71-.29-.29-.28-.29-.71t.29-.71q.28-.29.71-.29h2q.43 0 .71.29.29.29.29.71t-.29.71q-.28.29-.71.29zm-8-8q-.43 0-.71-.29-.29-.29-.29-.71v-2q0-.43.29-.71.28-.29.71-.29t.71.29q.29.29.29.71v2q0 .42-.29.71-.28.29-.71.29zm0 18q-.43 0-.71-.29-.29-.28-.29-.71v-2q0-.43.29-.71.28-.29.71-.29t.71.29q.29.28.29.71v2q0 .43-.29.71-.28.29-.71.29zm-6.35-15.95-1.07-1.05q-.3-.28-.29-.7.01-.42.29-.72.3-.3.72-.3t.7.3l1.05 1.07q.28.3.28.7 0 .4-.28.7-.28.3-.69.29-.41-.01-.71-.29zm12.35 12.38-1.05-1.08q-.27-.3-.27-.71 0-.41.27-.69.27-.3.69-.29.41.02.71.29l1.08 1.05q.3.27.28.7-.01.43-.28.73-.3.3-.73.3t-.7-.3zm-1.05-12.38q-.3-.27-.29-.69.02-.41.29-.71l1.05-1.07q.27-.3.7-.29.43.01.73.29.3.3.3.72t-.3.7l-1.08 1.05q-.3.28-.7.28-.4 0-.7-.28zm-12.38 12.38q-.3-.3-.3-.73t.3-.7l1.08-1.05q.3-.27.71-.27.41 0 .69.27.3.27.29.69-.01.41-.29.71l-1.05 1.08q-.28.3-.7.28-.42-.01-.72-.28z" fill="#fff"/></svg>