<!-- CC-BY - https://github.com/reiver/fediverse-icons -->
<svg width="512" height="512" viewBox="0 0 512 512" fill="none" xmlns="http://www.w3.org/2000/svg">
<path d="M253.327 231.222C273.138 225.034 283.687 203.21 272.188 185.932C260.55 168.444 245.621 152.451 229.602 143.462C203.361 128.737 172.782 123.673 143.189 129.15C113.596 134.628 86.862 150.3 67.642 173.439C48.422 196.579 37.9328 225.719 38.0003 255.788C38.0679 285.858 48.6879 314.951 68.0117 338.004C87.3355 361.057 114.139 376.609 143.757 381.954C173.374 387.298 203.93 382.097 230.105 367.254C247.097 357.619 260.996 342.705 271.555 325.726C281.231 310.169 273.378 290.598 257.062 282.264L246.267 276.749C230.326 268.607 210.566 276.498 198.502 289.722C195.653 292.846 192.785 295.394 190.135 296.897C180.439 302.395 169.121 304.321 158.15 302.342C147.179 300.362 137.25 294.601 130.092 286.061C122.934 277.522 119 266.745 118.975 255.607C118.95 244.469 122.835 233.674 129.955 225.103C137.075 216.531 146.977 210.726 157.939 208.697C168.901 206.668 180.229 208.544 189.949 213.998C192.537 215.451 194.968 217.547 197.216 220.038C207.837 231.804 222.93 240.717 238.06 235.991L253.327 231.222Z" fill="black"/>
<path d="M421.573 367.463C403.986 378.276 394 384 363.125 384C318.094 380.224 285.22 359.611 281.006 332.093C278.04 312.732 293.883 296.726 308.315 283.484L338.429 255.854C344.434 250.344 351.456 245.328 359.605 245.252C374.389 245.114 387 254.944 387 273.5C387 297 347.525 303.39 356.532 314.5C360.484 319.376 367.351 318.507 372.544 314.982C378.422 310.992 384.145 306.646 389.128 302.248C394.303 297.682 398.329 291.945 400.802 285.502C403.018 279.727 404.777 273.376 404.399 268.651C403.789 261.014 401.082 253.697 396.577 247.508C392.073 241.319 385.948 236.5 378.88 233.585C371.812 230.67 364.077 229.773 356.532 230.993C348.986 232.212 341.925 235.502 336.129 240.496C327.139 248.243 314.042 248.66 305.606 240.312L290.129 224.995C279.549 214.525 279.604 197.416 290.251 187.014C305.896 173.531 324.958 164.652 345.327 161.36C365.696 158.067 386.577 160.489 405.657 168.358C424.737 176.227 441.272 189.235 453.431 205.942C465.589 222.649 472.897 242.404 474.545 263.017C476.193 283.631 472.116 304.299 462.767 322.734C453.417 341.168 439.16 356.65 421.573 367.463Z" fill="black"/>
</svg>
