<!-- CC-BY - https://github.com/reiver/fediverse-icons -->
<svg width="512" height="512" viewBox="0 0 512 512" fill="none" xmlns="http://www.w3.org/2000/svg">
<path fill-rule="evenodd" clip-rule="evenodd" d="M181 77C123.562 77 77 123.562 77 181V332C77 389.438 123.562 436 181 436H332C389.438 436 436 389.438 436 332V181C436 123.562 389.438 77 332 77H181ZM303.03 151.269C294.762 151.269 288.06 157.971 288.06 166.239C288.06 174.506 294.762 181.209 303.03 181.209C311.297 181.209 318 174.506 318 166.239C318 157.971 311.297 151.269 303.03 151.269ZM271.173 157.714C274.93 143.638 287.769 133.269 303.03 133.269C321.239 133.269 336 148.03 336 166.239C336 184.448 321.239 199.209 303.03 199.209C288.153 199.209 275.577 189.355 271.473 175.818C242.538 179.872 220.271 204.724 220.271 234.777V275.467C232.746 260.426 250.741 250.13 271.15 247.686C274.879 233.566 287.739 223.156 303.03 223.156C321.239 223.156 336 237.917 336 256.126C336 274.335 321.239 289.096 303.03 289.096C288.188 289.096 275.637 279.289 271.503 265.802C245.851 269.666 225.495 289.692 221.136 315.179C234.719 319.254 244.615 331.852 244.615 346.762C244.615 364.971 229.854 379.732 211.645 379.732C193.436 379.732 178.675 364.971 178.675 346.762C178.675 331.81 188.629 319.182 202.271 315.144V234.777C202.271 194.874 232.414 162.01 271.173 157.714ZM288.06 256.126C288.06 247.858 294.762 241.156 303.03 241.156C311.297 241.156 318 247.858 318 256.126C318 264.394 311.297 271.096 303.03 271.096C294.762 271.096 288.06 264.394 288.06 256.126ZM196.675 346.762C196.675 338.494 203.378 331.792 211.645 331.792C219.913 331.792 226.615 338.494 226.615 346.762C226.615 355.029 219.913 361.732 211.645 361.732C203.378 361.732 196.675 355.029 196.675 346.762Z" fill="black"/>
</svg>
