<!-- CC-BY - https://github.com/reiver/fediverse-icons -->
<svg width="512" height="512" viewBox="0 0 512 512" fill="none" xmlns="http://www.w3.org/2000/svg">
<rect x="86" y="86" width="341" height="341" rx="95" stroke="black" stroke-width="18"/>
<path d="M353.955 202.068C364.17 217.924 369.701 236.006 369.988 254.485C370.275 272.964 365.308 291.186 355.589 307.31C345.87 323.434 331.743 336.889 314.635 346.315C297.528 355.742 278.046 360.805 258.158 360.994C238.27 361.184 218.68 356.492 201.368 347.394C184.057 338.295 169.636 325.112 159.563 309.177C149.49 293.241 144.123 275.117 144.002 256.636C143.882 238.156 149.012 219.973 158.877 203.925" stroke="black" stroke-width="18" stroke-linecap="round" stroke-linejoin="round"/>
<path d="M324.266 232.106C328.403 242.193 329.86 253.06 328.513 263.783C327.165 274.506 323.052 284.767 316.525 293.693C309.998 302.619 301.25 309.944 291.025 315.046C280.801 320.148 269.403 322.876 257.801 322.996C246.2 323.116 234.74 320.626 224.396 315.737C214.051 310.848 205.13 303.705 198.391 294.917C191.652 286.129 187.295 275.955 185.691 265.263C184.087 254.57 185.284 243.675 189.179 233.506" stroke="black" stroke-width="18" stroke-linecap="round" stroke-linejoin="round"/>
<path d="M289 256C289 259.808 288.172 263.579 286.564 267.098C284.956 270.616 282.599 273.813 279.627 276.506C276.656 279.199 273.128 281.335 269.246 282.793C265.363 284.25 261.202 285 257 285C252.798 285 248.637 284.25 244.754 282.793C240.872 281.335 237.344 279.199 234.373 276.506C231.401 273.813 229.044 270.616 227.436 267.098C225.828 263.579 225 259.808 225 256" stroke="black" stroke-width="18" stroke-linecap="round" stroke-linejoin="round"/>
<path d="M245.708 245.863C245.708 251.269 251.101 254.648 254.809 255.662L255.513 255.78C256.386 255.926 257.277 255.926 258.15 255.78L258.854 255.662C262.562 254.648 268.292 251.269 268.292 245.863C268.292 239.105 268.629 213.086 296.606 207.342C324.584 201.598 331.325 171.524 330.988 164.766C330.651 158.008 301.191 164.766 284.472 172.876C274.022 177.945 257.169 184.703 257.169 197.881H256.831C256.831 184.703 239.978 177.945 229.528 172.876C212.809 164.766 183.349 158.008 183.012 164.766C182.675 171.524 189.416 201.598 217.394 207.342C245.371 213.086 245.708 239.105 245.708 245.863Z" fill="black"/>
<path d="M254.809 255.662L252.436 264.344C252.729 264.424 253.026 264.489 253.326 264.539L254.809 255.662ZM217.394 207.342L215.583 216.158L217.394 207.342ZM183.012 164.766L192.001 165.215L183.012 164.766ZM229.528 172.876L233.456 164.778V164.778L229.528 172.876ZM256.831 197.881H247.831C247.831 202.851 251.861 206.881 256.831 206.881V197.881ZM258.854 255.662L260.337 264.539C260.637 264.489 260.934 264.424 261.227 264.344L258.854 255.662ZM330.988 164.766L339.977 164.318V164.318L330.988 164.766ZM284.472 172.876L288.4 180.974V180.974L284.472 172.876ZM257.169 197.881V206.881C262.139 206.881 266.169 202.851 266.169 197.881H257.169ZM258.15 255.78L256.667 246.903L256.667 246.903L258.15 255.78ZM255.513 255.78L256.996 246.903L256.996 246.903L255.513 255.78ZM257.182 246.981C256.915 246.908 256.498 246.755 256.034 246.51C255.573 246.266 255.193 245.996 254.923 245.751C254.652 245.504 254.59 245.372 254.608 245.408C254.646 245.482 254.708 245.663 254.708 245.863H236.708C236.708 251.831 239.743 256.277 242.814 259.069C245.812 261.795 249.402 263.514 252.436 264.344L257.182 246.981ZM254.708 245.863C254.708 242.308 254.667 232.479 250.268 222.571C245.642 212.15 236.35 202.046 219.204 198.526L215.583 216.158C226.415 218.382 231.28 224.16 233.816 229.874C236.581 236.101 236.708 242.66 236.708 245.863H254.708ZM219.204 198.526C208.448 196.318 201.668 189.511 197.417 182.001C195.279 178.223 193.862 174.385 193.008 171.159C192.583 169.553 192.312 168.155 192.158 167.056C192.082 166.508 192.038 166.062 192.017 165.724C191.994 165.371 192.001 165.211 192.001 165.215L174.023 164.318C173.874 167.304 174.466 171.456 175.607 175.765C176.797 180.258 178.751 185.564 181.753 190.868C187.782 201.52 198.362 212.622 215.583 216.158L219.204 198.526ZM192.001 165.215C191.839 168.456 189.643 170.279 188.527 170.851C187.776 171.236 187.573 171.09 188.627 171.025C190.556 170.905 193.909 171.2 198.398 172.078C207.223 173.805 218.017 177.295 225.6 180.974L233.456 164.778C224.321 160.347 212.025 156.403 201.855 154.413C196.847 153.433 191.727 152.798 187.515 153.059C185.498 153.184 182.808 153.555 180.317 154.833C177.459 156.297 174.269 159.387 174.023 164.318L192.001 165.215ZM225.6 180.974C231.364 183.769 237.142 186.262 241.843 189.643C246.518 193.006 247.831 195.645 247.831 197.881H265.831C265.831 186.939 258.718 179.609 252.354 175.031C246.016 170.472 238.142 167.051 233.456 164.778L225.6 180.974ZM261.227 264.344C264.181 263.536 267.802 261.866 270.866 259.204C273.969 256.508 277.292 252.034 277.292 245.863H259.292C259.292 245.56 259.386 245.317 259.435 245.228C259.458 245.186 259.383 245.336 259.061 245.616C258.743 245.892 258.303 246.19 257.78 246.458C257.255 246.728 256.784 246.898 256.48 246.981L261.227 264.344ZM277.292 245.863C277.292 242.66 277.419 236.101 280.184 229.874C282.72 224.16 287.585 218.382 298.417 216.158L294.796 198.526C277.65 202.046 268.358 212.15 263.732 222.571C259.333 232.479 259.292 242.308 259.292 245.863H277.292ZM298.417 216.158C315.638 212.622 326.218 201.52 332.247 190.868C335.249 185.564 337.203 180.258 338.393 175.765C339.534 171.456 340.126 167.304 339.977 164.318L321.999 165.215C321.999 165.211 322.006 165.371 321.983 165.724C321.962 166.062 321.918 166.508 321.842 167.056C321.688 168.155 321.417 169.553 320.992 171.159C320.138 174.385 318.721 178.223 316.583 182.001C312.332 189.511 305.552 196.318 294.796 198.526L298.417 216.158ZM339.977 164.318C339.731 159.387 336.541 156.297 333.683 154.833C331.192 153.555 328.502 153.184 326.485 153.059C322.273 152.798 317.153 153.433 312.145 154.413C301.975 156.403 289.679 160.347 280.544 164.778L288.4 180.974C295.983 177.295 306.777 173.805 315.602 172.078C320.091 171.2 323.444 170.905 325.373 171.025C326.427 171.09 326.224 171.236 325.473 170.851C324.357 170.279 322.161 168.456 321.999 165.215L339.977 164.318ZM280.544 164.778C275.858 167.051 267.984 170.472 261.646 175.031C255.282 179.609 248.169 186.939 248.169 197.881H266.169C266.169 195.645 267.482 193.006 272.157 189.643C276.858 186.262 282.636 183.769 288.4 180.974L280.544 164.778ZM256.831 206.881H257.169V188.881H256.831V206.881ZM257.371 246.785L256.667 246.903L259.632 264.657L260.337 264.539L257.371 246.785ZM256.996 246.903L256.292 246.785L253.326 264.539L254.031 264.657L256.996 246.903ZM256.667 246.903C256.776 246.885 256.887 246.885 256.996 246.903L254.031 264.657C255.885 264.967 257.778 264.967 259.632 264.657L256.667 246.903Z" fill="black"/>
</svg>
