<!-- CC-BY - https://github.com/reiver/fediverse-icons -->
<svg width="512" height="512" viewBox="0 0 512 512" fill="none" xmlns="http://www.w3.org/2000/svg">
<path fill-rule="evenodd" clip-rule="evenodd" d="M175.394 91.7845L232.098 84.5849C259.535 81.1012 286.351 93.3871 301.711 115.881L278.501 121.263C254.24 126.889 237.063 148.515 237.063 173.433V179.987C237.063 204.42 253.591 225.755 277.238 231.848L304.335 238.829L302.58 256.702C299.132 291.83 326.715 322.273 361.992 322.273H394.259C419.619 322.273 441.619 302.514 434.989 283.157C442.141 292.886 446.063 304.703 446.063 316.918V324.433H435.466L426.867 352.433C414.687 392.098 374.274 415.933 333.667 407.403L291.049 398.45C279.438 396.011 267.68 401.907 262.691 412.671C255.052 429.148 233.12 432.573 220.821 419.21L88.7782 275.742C56.8167 241.015 57.1105 187.496 89.4511 153.122L121.182 119.396C135.499 104.178 154.666 94.4163 175.394 91.7845ZM406.977 249.724L412.346 241.577L338.408 186.901L350.873 173.753C354.233 170.208 356.678 165.897 357.997 161.194C358.795 158.346 359.058 155.478 358.849 152.695C356.653 157.774 351.916 161.358 346.358 162.037L319.725 165.29V154.395H274.298V195.25L319.725 207.878L366.145 249.724H406.977ZM166.564 243.076L175.628 243.076C180.01 243.076 183.563 239.524 183.563 235.142C183.563 230.76 187.115 227.207 191.497 227.207H197.254C204.816 227.207 210.946 233.337 210.946 240.899V251.49C210.946 264.901 200.074 275.773 186.663 275.773L160.214 275.773C145.106 275.773 132.198 264.881 129.656 249.988L121.321 201.152C119.327 189.472 124.167 177.676 133.79 170.762L134.477 170.269C143.116 164.061 154.334 162.717 164.195 166.708L180.397 173.265C185.637 175.385 189.066 180.472 189.066 186.124C189.066 193.786 182.855 199.997 175.193 199.997H169.316C158.408 199.997 149.566 208.839 149.566 219.747L149.566 226.078C149.566 235.465 157.176 243.076 166.564 243.076Z" fill="black"/>
</svg>
