<!-- CC-BY - https://github.com/reiver/fediverse-icons -->
<svg width="512" height="512" viewBox="0 0 512 512" fill="none" xmlns="http://www.w3.org/2000/svg">
<path d="M289 395C289 411.913 274.884 426 257 426C239.116 426 225 411.913 225 395C225 378.087 239.116 364 257 364C274.884 364 289 378.087 289 395Z" stroke="black" stroke-width="18"/>
<path fill-rule="evenodd" clip-rule="evenodd" d="M187.997 113.368C126.039 111.595 74.8511 161.339 74.8511 223.323V290.043C74.8511 349.569 122.203 398.296 181.705 399.998L217.077 401.01C216.862 399.32 216.751 397.598 216.751 395.849C216.751 373.544 234.832 355.462 257.137 355.462C279.442 355.462 297.524 373.544 297.524 395.849C297.524 398.392 297.289 400.88 296.84 403.293L324.095 404.073C386.053 405.845 437.241 356.101 437.241 294.117V227.397C437.241 167.871 389.889 119.145 330.387 117.443L187.997 113.368ZM349 313C361.15 313 371 303.15 371 291C371 278.85 361.15 269 349 269C336.85 269 327 278.85 327 291C327 303.15 336.85 313 349 313ZM349 331C371.091 331 389 313.091 389 291C389 268.909 371.091 251 349 251C326.909 251 309 268.909 309 291C309 313.091 326.909 331 349 331ZM185 291C185 303.15 175.15 313 163 313C150.85 313 141 303.15 141 291C141 278.85 150.85 269 163 269C175.15 269 185 278.85 185 291ZM203 291C203 313.091 185.091 331 163 331C140.909 331 123 313.091 123 291C123 268.909 140.909 251 163 251C185.091 251 203 268.909 203 291Z" fill="black"/>
<path d="M408.586 359L453 379.861M383 379.861L408.586 408" stroke="black" stroke-width="18" stroke-linecap="round"/>
<path d="M103.414 359L59 379.861M129 379.861L103.414 408" stroke="black" stroke-width="18" stroke-linecap="round"/>
<path fill-rule="evenodd" clip-rule="evenodd" d="M139.653 123.006C131.167 105.821 113.464 94 93 94C64.2812 94 41 117.281 41 146C41 169.612 56.7378 189.549 78.2961 195.892C76.8144 201.667 75.7895 207.628 75.2628 213.733C45.1917 205.88 23 178.532 23 146C23 107.34 54.3401 76 93 76C121.297 76 145.672 92.7902 156.707 116.951C150.817 118.507 145.117 120.539 139.653 123.006ZM96.4091 197.89C123.539 196.134 145 173.573 145 146C145 144.148 144.903 142.318 144.714 140.516C150.199 137.851 155.985 135.717 162.006 134.178C162.66 138.021 163 141.971 163 146C163 184.614 131.734 215.925 93.1379 216C93.6283 209.765 94.7396 203.708 96.4091 197.89ZM436.378 213.563C466.123 205.491 488 178.3 488 146C488 107.34 456.66 76 418 76C388.377 76 363.053 94.4002 352.831 120.395C358.75 121.804 364.48 123.691 369.981 126.011C377.814 107.214 396.364 94 418 94C446.719 94 470 117.281 470 146C470 169.627 454.242 189.574 432.663 195.904C434.366 201.611 435.618 207.512 436.378 213.563ZM414.4 197.877C416.365 203.682 417.767 209.744 418.541 215.998C418.361 215.999 418.18 216 418 216C379.34 216 348 184.66 348 146C348 143.248 348.159 140.532 348.468 137.863C354.587 139.307 360.466 141.361 366.039 143.956C366.013 144.634 366 145.315 366 146C366 173.509 387.36 196.028 414.4 197.877Z" fill="black"/>
</svg>
