<!-- CC-BY - https://github.com/reiver/fediverse-icons -->
<svg width="512" height="512" viewBox="0 0 512 512" fill="none" xmlns="http://www.w3.org/2000/svg">
<path fill-rule="evenodd" clip-rule="evenodd" d="M95.2379 182.246V350.989C95.2379 364.802 106.436 376 120.249 376H121.593C135.406 376 146.604 364.802 146.604 350.989V245.078L164.604 266.756V350.989C164.604 374.743 145.347 394 121.593 394H120.249C96.4945 394 77.2379 374.743 77.2379 350.989V160.011C77.2379 136.257 96.4945 117 120.249 117H121.593C139.006 117 154.002 127.348 160.768 142.23L157.719 138.558C146.429 124.962 126.254 123.092 112.657 134.382L108.18 138.099C105.125 139.786 102.459 142.093 100.354 144.851C90.6383 154.915 88.6789 170.119 95.2379 182.246ZM256.001 267.238V350.989C256.001 374.743 275.258 394 299.012 394H300.356C324.11 394 343.367 374.743 343.367 350.989V160.011C343.367 136.257 324.11 117 300.356 117H299.012C281.203 117 265.923 127.823 259.389 143.251L263.285 138.558C274.575 124.962 294.75 123.092 308.347 134.382L313.839 138.942C315.594 140.067 317.199 141.406 318.618 142.922C330.282 153.074 332.857 169.929 325.367 182.963V350.989C325.367 364.802 314.169 376 300.356 376H299.012C285.199 376 274.001 364.802 274.001 350.989V245.56L256.001 267.238Z" fill="black"/>
<path d="M327.482 127.637C345.737 142.828 348.247 169.974 333.09 188.269L249.846 288.741C225.458 321.519 195.25 320.846 170.434 288.144L88.0374 188.694C72.6853 170.164 75.2282 142.671 93.717 127.285C112.206 111.899 139.639 114.447 154.991 132.977L207.307 196.12C208.907 198.051 211.868 198.051 213.468 196.12L266.136 132.552C281.293 114.257 308.379 111.741 326.634 126.932L327.482 127.637Z" fill="black"/>
<path d="M189.5 297.5L95 186C92.6667 183.667 88 178.2 88 175C88 171 88.5 151 88 143.5C87.5 136 103.5 128.5 116.5 125C126.9 122.2 137.5 128.5 141.5 132C172.167 168.667 235 243.4 241 249C247 254.6 247.5 270.333 247 277.5C241 284.167 227.2 298.7 220 303.5C212.8 308.3 196.667 301.5 189.5 297.5Z" fill="black" stroke="black"/>
<path d="M358 239C358 218.013 375.013 201 396 201C416.987 201 434 218.013 434 239V356C434 376.987 416.987 394 396 394C375.013 394 358 376.987 358 356V239Z" fill="black"/>
<ellipse cx="397" cy="156" rx="37" ry="38" fill="black"/>
<path d="M264.5 357.5V264V257L334.5 179.5V357.5L325.5 372L310 383.5H296L278 376.5L264.5 357.5Z" fill="black"/>
</svg>
