<!-- CC-BY - https://github.com/reiver/fediverse-icons -->
<svg width="512" height="512" viewBox="0 0 512 512" fill="none" xmlns="http://www.w3.org/2000/svg">
<path fill-rule="evenodd" clip-rule="evenodd" d="M343.257 404.255C393.974 374.341 428 319.144 428 256C428 230.686 422.531 206.649 412.711 185.006C411.662 202.528 407.909 220.432 404.044 233.595L343.257 404.255ZM319.987 415.704L273.3 290.764C270.034 282.024 257.637 282.123 254.511 290.914L210.084 415.832C209.316 417.992 207.99 419.626 206.378 420.734C222.09 425.46 238.748 428 256 428C278.614 428 300.208 423.636 319.987 415.704ZM191.052 415.315C128.255 389.688 84 328.012 84 256C84 227.061 91.147 199.791 103.772 175.859L191.052 415.315ZM116.415 155.479H169.999C174.507 155.479 178.161 159.133 178.161 163.641C178.161 168.148 174.507 171.802 169.999 171.802H167.916C161.022 171.802 156.196 178.613 158.481 185.116L208.11 326.389C211.247 335.32 223.884 335.298 226.991 326.358L254.386 247.528C255.158 245.306 255.122 242.883 254.284 240.685L230.488 178.241C229.011 174.364 225.293 171.802 221.144 171.802H213.579C209.071 171.802 205.417 168.148 205.417 163.641C205.417 159.133 209.071 155.479 213.579 155.479H299.904C304.411 155.479 308.065 159.133 308.065 163.641C308.065 168.148 304.411 171.802 299.904 171.802H297.884C290.973 171.802 286.145 178.646 288.464 185.157L338.349 325.249C341.569 334.291 354.41 334.038 357.238 324.867C363.743 303.768 370.861 280.281 373.307 270.904C377.947 253.124 378.237 218.73 368.668 205.03C359.771 192.293 325.556 133.191 367.41 124.954C337.396 99.413 298.498 84 256 84C198.534 84 147.65 112.182 116.415 155.479Z" fill="black"/>
<path d="M410.638 235.944L410.704 235.757L410.76 235.567C416.245 216.893 421.635 188.545 419.535 164.489C418.487 152.486 415.511 140.747 408.999 131.852C402.206 122.573 391.995 117 378.237 117C362.493 117 351.281 121.615 345.111 130.844C339.204 139.68 339.291 150.814 341.249 160.734C345.19 180.697 357.947 201.906 362.929 209.039C364.598 211.428 366.113 215.172 367.26 220.168C368.387 225.079 369.064 230.778 369.322 236.74C369.843 248.745 368.64 261.068 366.534 269.136C364.136 278.329 357.073 301.643 350.549 322.804C349.718 325.497 345.918 325.638 344.944 322.901L295.058 182.808C294.362 180.855 295.811 178.802 297.884 178.802H299.904C308.277 178.802 315.065 172.014 315.065 163.641C315.065 155.267 308.277 148.479 299.904 148.479H213.579C205.205 148.479 198.417 155.267 198.417 163.641C198.417 172.014 205.205 178.802 213.579 178.802H221.144C222.389 178.802 223.504 179.571 223.947 180.734L247.743 243.177C247.995 243.837 248.005 244.564 247.774 245.23L220.379 324.06C219.447 326.742 215.656 326.748 214.714 324.069L165.085 182.796C164.4 180.845 165.848 178.802 167.916 178.802H169.999C178.373 178.802 185.161 172.014 185.161 163.641C185.161 155.267 178.373 148.479 169.999 148.479H105.193C97.9069 148.479 92 154.386 92 161.673C92 163.214 92.27 164.743 92.7977 166.191L184.69 418.303C190.145 433.27 211.342 433.187 216.68 418.178L261.106 293.259C262.044 290.622 265.763 290.592 266.743 293.214L313.663 418.78C319.214 433.634 340.281 433.471 345.602 418.533L410.638 235.944Z" stroke="black" stroke-width="14" stroke-linecap="round"/>
</svg>
